<?xml version="1.0" encoding="UTF-8"?>
<svg width="110px" height="19px" viewBox="0 0 110 19" version="1.1" xmlns="http://www.w3.org/2000/svg" xmlns:xlink="http://www.w3.org/1999/xlink">
    <!-- Generator: Sketch 52.6 (67491) - http://www.bohemiancoding.com/sketch -->
    <title>Group 17</title>
    <desc>Created with Sketch.</desc>
    <g id="Page-1" stroke="none" stroke-width="1" fill="none" fill-rule="evenodd">
        <g id="Cialis-Mobile" transform="translate(-152.000000, -5566.000000)" fill="#FFC000">
            <g id="Group-47" transform="translate(0.000000, 5500.000000)">
                <g id="Group-39" transform="translate(17.000000, 66.000000)">
                    <g id="Group-17" transform="translate(135.000000, 0.000000)">
                        <polygon id="Star" points="10 14.5 4.12214748 18.0901699 5.72024568 11.3905765 0.489434837 6.90983006 7.35496636 6.35942353 10 0 12.6450336 6.35942353 19.5105652 6.90983006 14.2797543 11.3905765 15.8778525 18.0901699"></polygon>
                        <polygon id="Star-Copy" points="32.5 14.5 26.6221475 18.0901699 28.2202457 11.3905765 22.9894348 6.90983006 29.8549664 6.35942353 32.5 0 35.1450336 6.35942353 42.0105652 6.90983006 36.7797543 11.3905765 38.3778525 18.0901699"></polygon>
                        <polygon id="Star-Copy-2" points="55 14.5 49.1221475 18.0901699 50.7202457 11.3905765 45.4894348 6.90983006 52.3549664 6.35942353 55 0 57.6450336 6.35942353 64.5105652 6.90983006 59.2797543 11.3905765 60.8778525 18.0901699"></polygon>
                        <polygon id="Star-Copy-3" points="77.5 14.5 71.6221475 18.0901699 73.2202457 11.3905765 67.9894348 6.90983006 74.8549664 6.35942353 77.5 0 80.1450336 6.35942353 87.0105652 6.90983006 81.7797543 11.3905765 83.3778525 18.0901699"></polygon>
                        <polygon id="Star-Copy-4" points="100 14.5 94.1221475 18.0901699 95.7202457 11.3905765 90.4894348 6.90983006 97.3549664 6.35942353 100 0 102.645034 6.35942353 109.510565 6.90983006 104.279754 11.3905765 105.877853 18.0901699"></polygon>
                    </g>
                </g>
            </g>
        </g>
    </g>
</svg>